<?xml version="1.0" encoding="UTF-8"?>
<svg id="Camada_1" data-name="Camada 1" xmlns="http://www.w3.org/2000/svg" viewBox="0 0 23.3 23.53">
  <defs>
    <style>
      .cls-1 {
        fill: #000;
        opacity: .2;
        stroke-width: 0px;
      }
    </style>
  </defs>
  <path class="cls-1" d="M23.16,22.68l-7.45-7.6c1.45-1.6,2.35-3.72,2.35-6.06C18.05,4.04,14.01,0,9.03,0S0,4.04,0,9.03s4.04,9.03,9.03,9.03c2.29,0,4.37-.86,5.97-2.27l7.45,7.6c.1.1.23.15.36.15s.25-.05.35-.14c.2-.19.2-.51,0-.71ZM1,9.03C1,4.6,4.6,1,9.03,1s8.03,3.6,8.03,8.03-3.6,8.03-8.03,8.03S1,13.45,1,9.03Z"/>
</svg>